<mxfile host="app.diagrams.net" agent="Mozilla/5.0 (X11; Linux x86_64; rv:133.0) Gecko/20100101 Firefox/133.0" version="24.9.2">
  <diagram id="C5RBs43oDa-KdzZeNtuy" name="Page-1">
    <mxGraphModel dx="1434" dy="778" grid="1" gridSize="10" guides="1" tooltips="1" connect="1" arrows="1" fold="1" page="1" pageScale="1" pageWidth="2000" pageHeight="2000" math="0" shadow="0">
      <root>
        <mxCell id="WIyWlLk6GJQsqaUBKTNV-0" />
        <mxCell id="WIyWlLk6GJQsqaUBKTNV-1" parent="WIyWlLk6GJQsqaUBKTNV-0" />
        <mxCell id="DJnPqNGU1OBcBrdGDTDk-79" style="edgeStyle=orthogonalEdgeStyle;rounded=0;orthogonalLoop=1;jettySize=auto;html=1;exitX=0.5;exitY=1;exitDx=0;exitDy=0;entryX=0.5;entryY=0;entryDx=0;entryDy=0;" edge="1" parent="WIyWlLk6GJQsqaUBKTNV-1" source="DJnPqNGU1OBcBrdGDTDk-1" target="DJnPqNGU1OBcBrdGDTDk-71">
          <mxGeometry relative="1" as="geometry" />
        </mxCell>
        <mxCell id="DJnPqNGU1OBcBrdGDTDk-1" value="&lt;div&gt;Start&lt;/div&gt;" style="ellipse;whiteSpace=wrap;html=1;" vertex="1" parent="WIyWlLk6GJQsqaUBKTNV-1">
          <mxGeometry x="40" width="120" height="80" as="geometry" />
        </mxCell>
        <mxCell id="DJnPqNGU1OBcBrdGDTDk-78" style="edgeStyle=orthogonalEdgeStyle;rounded=0;orthogonalLoop=1;jettySize=auto;html=1;exitX=0.5;exitY=1;exitDx=0;exitDy=0;entryX=0.5;entryY=0;entryDx=0;entryDy=0;" edge="1" parent="WIyWlLk6GJQsqaUBKTNV-1" source="DJnPqNGU1OBcBrdGDTDk-71" target="DJnPqNGU1OBcBrdGDTDk-72">
          <mxGeometry relative="1" as="geometry" />
        </mxCell>
        <mxCell id="DJnPqNGU1OBcBrdGDTDk-71" value="enter n, k" style="shape=parallelogram;perimeter=parallelogramPerimeter;whiteSpace=wrap;html=1;fixedSize=1;" vertex="1" parent="WIyWlLk6GJQsqaUBKTNV-1">
          <mxGeometry x="40" y="120" width="120" height="60" as="geometry" />
        </mxCell>
        <mxCell id="DJnPqNGU1OBcBrdGDTDk-76" value="y" style="edgeStyle=orthogonalEdgeStyle;rounded=0;orthogonalLoop=1;jettySize=auto;html=1;exitX=1;exitY=0.5;exitDx=0;exitDy=0;entryX=0;entryY=0.5;entryDx=0;entryDy=0;" edge="1" parent="WIyWlLk6GJQsqaUBKTNV-1" source="DJnPqNGU1OBcBrdGDTDk-72" target="DJnPqNGU1OBcBrdGDTDk-74">
          <mxGeometry relative="1" as="geometry" />
        </mxCell>
        <mxCell id="DJnPqNGU1OBcBrdGDTDk-83" value="n" style="edgeStyle=orthogonalEdgeStyle;rounded=0;orthogonalLoop=1;jettySize=auto;html=1;exitX=0.5;exitY=1;exitDx=0;exitDy=0;entryX=0.5;entryY=0;entryDx=0;entryDy=0;" edge="1" parent="WIyWlLk6GJQsqaUBKTNV-1" source="DJnPqNGU1OBcBrdGDTDk-72" target="DJnPqNGU1OBcBrdGDTDk-88">
          <mxGeometry relative="1" as="geometry">
            <mxPoint x="100" y="340" as="targetPoint" />
          </mxGeometry>
        </mxCell>
        <mxCell id="DJnPqNGU1OBcBrdGDTDk-72" value="k &amp;gt; (n-1)/2?" style="rhombus;whiteSpace=wrap;html=1;" vertex="1" parent="WIyWlLk6GJQsqaUBKTNV-1">
          <mxGeometry x="60" y="220" width="80" height="80" as="geometry" />
        </mxCell>
        <mxCell id="DJnPqNGU1OBcBrdGDTDk-85" style="edgeStyle=orthogonalEdgeStyle;rounded=0;orthogonalLoop=1;jettySize=auto;html=1;exitX=1;exitY=0.5;exitDx=0;exitDy=0;entryX=0;entryY=0.5;entryDx=0;entryDy=0;" edge="1" parent="WIyWlLk6GJQsqaUBKTNV-1" source="DJnPqNGU1OBcBrdGDTDk-74" target="DJnPqNGU1OBcBrdGDTDk-82">
          <mxGeometry relative="1" as="geometry" />
        </mxCell>
        <mxCell id="DJnPqNGU1OBcBrdGDTDk-74" value="print -1" style="shape=parallelogram;perimeter=parallelogramPerimeter;whiteSpace=wrap;html=1;fixedSize=1;" vertex="1" parent="WIyWlLk6GJQsqaUBKTNV-1">
          <mxGeometry x="160" y="230" width="120" height="60" as="geometry" />
        </mxCell>
        <mxCell id="DJnPqNGU1OBcBrdGDTDk-82" value="End" style="ellipse;whiteSpace=wrap;html=1;" vertex="1" parent="WIyWlLk6GJQsqaUBKTNV-1">
          <mxGeometry x="320" y="220" width="120" height="80" as="geometry" />
        </mxCell>
        <mxCell id="DJnPqNGU1OBcBrdGDTDk-95" style="edgeStyle=orthogonalEdgeStyle;rounded=0;orthogonalLoop=1;jettySize=auto;html=1;exitX=0.5;exitY=1;exitDx=0;exitDy=0;entryX=0.5;entryY=0;entryDx=0;entryDy=0;" edge="1" parent="WIyWlLk6GJQsqaUBKTNV-1" source="DJnPqNGU1OBcBrdGDTDk-88" target="DJnPqNGU1OBcBrdGDTDk-89">
          <mxGeometry relative="1" as="geometry" />
        </mxCell>
        <mxCell id="DJnPqNGU1OBcBrdGDTDk-88" value="i = 2" style="rounded=0;whiteSpace=wrap;html=1;" vertex="1" parent="WIyWlLk6GJQsqaUBKTNV-1">
          <mxGeometry x="40" y="320" width="120" height="60" as="geometry" />
        </mxCell>
        <mxCell id="DJnPqNGU1OBcBrdGDTDk-93" value="y" style="edgeStyle=orthogonalEdgeStyle;rounded=0;orthogonalLoop=1;jettySize=auto;html=1;exitX=0.5;exitY=1;exitDx=0;exitDy=0;entryX=0.5;entryY=0;entryDx=0;entryDy=0;" edge="1" parent="WIyWlLk6GJQsqaUBKTNV-1" source="DJnPqNGU1OBcBrdGDTDk-89" target="DJnPqNGU1OBcBrdGDTDk-90">
          <mxGeometry relative="1" as="geometry" />
        </mxCell>
        <mxCell id="DJnPqNGU1OBcBrdGDTDk-111" style="edgeStyle=orthogonalEdgeStyle;rounded=0;orthogonalLoop=1;jettySize=auto;html=1;exitX=1;exitY=0.5;exitDx=0;exitDy=0;entryX=1;entryY=0.5;entryDx=0;entryDy=0;" edge="1" parent="WIyWlLk6GJQsqaUBKTNV-1" source="DJnPqNGU1OBcBrdGDTDk-89" target="DJnPqNGU1OBcBrdGDTDk-103">
          <mxGeometry relative="1" as="geometry" />
        </mxCell>
        <mxCell id="DJnPqNGU1OBcBrdGDTDk-112" value="n" style="edgeLabel;html=1;align=center;verticalAlign=middle;resizable=0;points=[];" vertex="1" connectable="0" parent="DJnPqNGU1OBcBrdGDTDk-111">
          <mxGeometry x="-0.9314" relative="1" as="geometry">
            <mxPoint as="offset" />
          </mxGeometry>
        </mxCell>
        <mxCell id="DJnPqNGU1OBcBrdGDTDk-89" value="i &amp;lt;= 2*k?" style="rhombus;whiteSpace=wrap;html=1;" vertex="1" parent="WIyWlLk6GJQsqaUBKTNV-1">
          <mxGeometry x="60" y="420" width="80" height="80" as="geometry" />
        </mxCell>
        <mxCell id="DJnPqNGU1OBcBrdGDTDk-94" style="edgeStyle=orthogonalEdgeStyle;rounded=0;orthogonalLoop=1;jettySize=auto;html=1;exitX=0.5;exitY=1;exitDx=0;exitDy=0;entryX=0.5;entryY=0;entryDx=0;entryDy=0;" edge="1" parent="WIyWlLk6GJQsqaUBKTNV-1" source="DJnPqNGU1OBcBrdGDTDk-90" target="DJnPqNGU1OBcBrdGDTDk-91">
          <mxGeometry relative="1" as="geometry" />
        </mxCell>
        <mxCell id="DJnPqNGU1OBcBrdGDTDk-90" value="print i i-1" style="shape=parallelogram;perimeter=parallelogramPerimeter;whiteSpace=wrap;html=1;fixedSize=1;" vertex="1" parent="WIyWlLk6GJQsqaUBKTNV-1">
          <mxGeometry x="40" y="520" width="120" height="60" as="geometry" />
        </mxCell>
        <mxCell id="DJnPqNGU1OBcBrdGDTDk-92" style="edgeStyle=orthogonalEdgeStyle;rounded=0;orthogonalLoop=1;jettySize=auto;html=1;exitX=0;exitY=0.5;exitDx=0;exitDy=0;entryX=0;entryY=0.5;entryDx=0;entryDy=0;" edge="1" parent="WIyWlLk6GJQsqaUBKTNV-1" source="DJnPqNGU1OBcBrdGDTDk-91" target="DJnPqNGU1OBcBrdGDTDk-89">
          <mxGeometry relative="1" as="geometry" />
        </mxCell>
        <mxCell id="DJnPqNGU1OBcBrdGDTDk-91" value="i += 2" style="rounded=0;whiteSpace=wrap;html=1;" vertex="1" parent="WIyWlLk6GJQsqaUBKTNV-1">
          <mxGeometry x="40" y="620" width="120" height="60" as="geometry" />
        </mxCell>
        <mxCell id="DJnPqNGU1OBcBrdGDTDk-102" style="edgeStyle=orthogonalEdgeStyle;rounded=0;orthogonalLoop=1;jettySize=auto;html=1;exitX=0.5;exitY=1;exitDx=0;exitDy=0;entryX=0.5;entryY=0;entryDx=0;entryDy=0;" edge="1" parent="WIyWlLk6GJQsqaUBKTNV-1" source="DJnPqNGU1OBcBrdGDTDk-103" target="DJnPqNGU1OBcBrdGDTDk-105">
          <mxGeometry relative="1" as="geometry" />
        </mxCell>
        <mxCell id="DJnPqNGU1OBcBrdGDTDk-103" value="i = 2*k+1" style="rounded=0;whiteSpace=wrap;html=1;" vertex="1" parent="WIyWlLk6GJQsqaUBKTNV-1">
          <mxGeometry x="40" y="720" width="120" height="60" as="geometry" />
        </mxCell>
        <mxCell id="DJnPqNGU1OBcBrdGDTDk-104" value="y" style="edgeStyle=orthogonalEdgeStyle;rounded=0;orthogonalLoop=1;jettySize=auto;html=1;exitX=0.5;exitY=1;exitDx=0;exitDy=0;entryX=0.5;entryY=0;entryDx=0;entryDy=0;" edge="1" parent="WIyWlLk6GJQsqaUBKTNV-1" source="DJnPqNGU1OBcBrdGDTDk-105" target="DJnPqNGU1OBcBrdGDTDk-107">
          <mxGeometry relative="1" as="geometry" />
        </mxCell>
        <mxCell id="DJnPqNGU1OBcBrdGDTDk-114" style="edgeStyle=orthogonalEdgeStyle;rounded=0;orthogonalLoop=1;jettySize=auto;html=1;exitX=1;exitY=0.5;exitDx=0;exitDy=0;entryX=1;entryY=0.5;entryDx=0;entryDy=0;" edge="1" parent="WIyWlLk6GJQsqaUBKTNV-1" source="DJnPqNGU1OBcBrdGDTDk-105" target="DJnPqNGU1OBcBrdGDTDk-113">
          <mxGeometry relative="1" as="geometry" />
        </mxCell>
        <mxCell id="DJnPqNGU1OBcBrdGDTDk-115" value="n" style="edgeLabel;html=1;align=center;verticalAlign=middle;resizable=0;points=[];" vertex="1" connectable="0" parent="DJnPqNGU1OBcBrdGDTDk-114">
          <mxGeometry x="-0.9389" y="1" relative="1" as="geometry">
            <mxPoint as="offset" />
          </mxGeometry>
        </mxCell>
        <mxCell id="DJnPqNGU1OBcBrdGDTDk-105" value="i &amp;lt;= n?" style="rhombus;whiteSpace=wrap;html=1;" vertex="1" parent="WIyWlLk6GJQsqaUBKTNV-1">
          <mxGeometry x="60" y="820" width="80" height="80" as="geometry" />
        </mxCell>
        <mxCell id="DJnPqNGU1OBcBrdGDTDk-106" style="edgeStyle=orthogonalEdgeStyle;rounded=0;orthogonalLoop=1;jettySize=auto;html=1;exitX=0.5;exitY=1;exitDx=0;exitDy=0;entryX=0.5;entryY=0;entryDx=0;entryDy=0;" edge="1" parent="WIyWlLk6GJQsqaUBKTNV-1" source="DJnPqNGU1OBcBrdGDTDk-107" target="DJnPqNGU1OBcBrdGDTDk-109">
          <mxGeometry relative="1" as="geometry" />
        </mxCell>
        <mxCell id="DJnPqNGU1OBcBrdGDTDk-107" value="print i " style="shape=parallelogram;perimeter=parallelogramPerimeter;whiteSpace=wrap;html=1;fixedSize=1;" vertex="1" parent="WIyWlLk6GJQsqaUBKTNV-1">
          <mxGeometry x="40" y="920" width="120" height="60" as="geometry" />
        </mxCell>
        <mxCell id="DJnPqNGU1OBcBrdGDTDk-108" style="edgeStyle=orthogonalEdgeStyle;rounded=0;orthogonalLoop=1;jettySize=auto;html=1;exitX=0;exitY=0.5;exitDx=0;exitDy=0;entryX=0;entryY=0.5;entryDx=0;entryDy=0;" edge="1" parent="WIyWlLk6GJQsqaUBKTNV-1" source="DJnPqNGU1OBcBrdGDTDk-109" target="DJnPqNGU1OBcBrdGDTDk-105">
          <mxGeometry relative="1" as="geometry" />
        </mxCell>
        <mxCell id="DJnPqNGU1OBcBrdGDTDk-109" value="i++" style="rounded=0;whiteSpace=wrap;html=1;" vertex="1" parent="WIyWlLk6GJQsqaUBKTNV-1">
          <mxGeometry x="40" y="1020" width="120" height="60" as="geometry" />
        </mxCell>
        <mxCell id="DJnPqNGU1OBcBrdGDTDk-113" value="End" style="ellipse;whiteSpace=wrap;html=1;" vertex="1" parent="WIyWlLk6GJQsqaUBKTNV-1">
          <mxGeometry x="40" y="1120" width="120" height="80" as="geometry" />
        </mxCell>
      </root>
    </mxGraphModel>
  </diagram>
</mxfile>
